<svg xmlns="http://www.w3.org/2000/svg" viewBox="0 0 635.92 73.83"><defs><style>.cls-1{fill:#fff;}.cls-2{fill:#63b9e9;}</style></defs><title>Logo_white</title><g id="Ebene_2" data-name="Ebene 2"><g id="Ebene_1-2" data-name="Ebene 1"><path class="cls-1" d="M.06,36.06V0h4.5V36.06Z"/><path class="cls-1" d="M15.9,36.06V.19h2.34L41.46,27V.19H46V36.06H43.69L20.34,9.25V36.06Z"/><path class="cls-1" d="M63.45,36.06V4.31H48.39V.19H83.08V4.31H68V36.06Z"/><path class="cls-1" d="M85.48,36.06V.19h28.19V4.31H89.92v10.5h14.38v4.12H89.92v13h25.19v4.12Z"/><path class="cls-1" d="M122.15,36.06V.19h20.56Q148,.19,151,2.84a9.29,9.29,0,0,1,3,7.33,10,10,0,0,1-8.52,10.14l9,15.75h-4.93l-9-15.69H126.59V36.06Zm4.44-19.87h15.83a7.65,7.65,0,0,0,5.12-1.5,5.48,5.48,0,0,0,1.74-4.39,5.65,5.65,0,0,0-1.74-4.41,7,7,0,0,0-4.89-1.58H126.59Z"/><path class="cls-1" d="M162.41,36.06V.19h4.12l14.47,22L195.6.19h4.06V36.06h-4.44V8L181,29.25,166.79,8v28Z"/><path class="cls-1" d="M210.7,36.06V.19h28.19V4.31H215.14v10.5h14.38v4.12H215.14v13h25.19v4.12Z"/><path class="cls-1" d="M262.9.19q8.48,0,13.66,5a17.3,17.3,0,0,1,5.18,13q0,8.09-5.1,13T262.9,36.06H247.55V.19Zm0,4.12H252V31.94H262.9q6.62,0,10.42-3.72t3.8-10.06a13.46,13.46,0,0,0-3.86-10Q269.39,4.31,262.9,4.31Z"/><path class="cls-1" d="M290.19,36.06V0h4.5V36.06Z"/><path class="cls-1" d="M300.65,36.06,318.23.19h3.71l17.78,35.87h-4.84L330,26.44H310.17l-4.74,9.62Zm11.57-13.81H328L320.08,6.34Z"/><path class="cls-1" d="M358.8,72.93V49.06H347.11V45.18h27.75v3.87H363.11V72.93Z"/><path class="cls-1" d="M379.64,72.93V45.18H405.7v4.06H384v6.94h14.25v4H384v8.75h22.87v4Z"/><path class="cls-1" d="M413.57,72.93V45.18h4.37V68.93h20.62v4Z"/><path class="cls-1" d="M444,72.93V45.18h26.06v4.06H448.37v6.94h14.25v4H448.37v8.75h22.87v4Z"/><path class="cls-1" d="M490,72.93h-2.24L473.86,45.18h4.61l10.42,20.76,10.26-20.76h4.77Z"/><path class="cls-1" d="M509.93,72.93V45.12h4.44V72.93Z"/><path class="cls-1" d="M522.11,69.39l2.11-3.64a24.34,24.34,0,0,0,6.24,3,21.39,21.39,0,0,0,6.47,1.07,10.65,10.65,0,0,0,6-1.51,4.51,4.51,0,0,0,2.28-3.88,3.77,3.77,0,0,0-2.08-3.52,15.08,15.08,0,0,0-6.57-1.28q-7.57-.1-10.4-1.76a5.87,5.87,0,0,1-2.83-5.5,6.72,6.72,0,0,1,3.11-5.76,14.27,14.27,0,0,1,8.34-2.18,24.07,24.07,0,0,1,6.94,1,25.94,25.94,0,0,1,6.49,3L546,52.06a21.94,21.94,0,0,0-5.6-2.72,18.7,18.7,0,0,0-5.73-1,10.1,10.1,0,0,0-5.08,1.11,3.29,3.29,0,0,0-1.92,2.9A2.71,2.71,0,0,0,529.62,55a20,20,0,0,0,6.72.78q6.64,0,10,2.24a7.45,7.45,0,0,1,3.38,6.65,7.87,7.87,0,0,1-3.43,6.52,14.35,14.35,0,0,1-8.89,2.59,28.68,28.68,0,0,1-8-1.15A27.93,27.93,0,0,1,522.11,69.39Z"/><path class="cls-1" d="M558,72.93V45.12h4.44V72.93Z"/><path class="cls-1" d="M587.07,73.81a17.8,17.8,0,0,1-12.19-4.19,14,14,0,0,1,0-21q4.76-4.14,12.21-4.14t12.27,4.13a13.32,13.32,0,0,1,4.76,10.53,13.4,13.4,0,0,1-4.78,10.54Q594.55,73.81,587.07,73.81Zm0-4.06a13.48,13.48,0,0,0,9.08-3,10.05,10.05,0,0,0,0-15.29,15.09,15.09,0,0,0-18.1,0,10.12,10.12,0,0,0,0,15.3A13.37,13.37,0,0,0,587.07,69.75Z"/><path class="cls-1" d="M611.74,72.93V45.18H614l17.66,19.5V45.18h4.25V72.93h-2.27L616,53.5V72.93Z"/><rect class="cls-2" x="622.34" y="0.18" width="13.5" height="28.35"/><rect class="cls-2" x="591.76" y="0.26" width="16.56" height="28.35"/><rect class="cls-2" x="561.17" y="0.35" width="19.62" height="28.35"/><rect class="cls-2" x="530.59" y="0.43" width="22.68" height="28.35"/><rect class="cls-2" x="500" y="0.52" width="25.75" height="28.35"/><rect class="cls-2" x="347.09" y="0.52" width="150.78" height="28.35"/><rect class="cls-2" y="45.48" width="13.59" height="28.35"/><rect class="cls-2" x="27.71" y="45.4" width="16.67" height="28.35"/><rect class="cls-2" x="55.42" y="45.31" width="19.75" height="28.35"/><rect class="cls-2" x="83.13" y="45.22" width="22.84" height="28.35"/><rect class="cls-2" x="110.84" y="45.14" width="25.92" height="28.35"/><rect class="cls-2" x="138.9" y="45.14" width="200.77" height="28.35"/></g></g></svg>