<?xml version="1.0" standalone="no"?>
<!DOCTYPE svg PUBLIC "-//W3C//DTD SVG 20010904//EN"
 "http://www.w3.org/TR/2001/REC-SVG-20010904/DTD/svg10.dtd">
<svg version="1.0" xmlns="http://www.w3.org/2000/svg"
 width="700.000000pt" height="700.000000pt" viewBox="0 0 700.000000 700.000000"
 preserveAspectRatio="xMidYMid meet">
<metadata>
Created by potrace 1.11, written by Peter Selinger 2001-2013
</metadata>
<g transform="translate(0.000000,700.000000) scale(0.100000,-0.100000)"
fill="#000000" stroke="none">
<path d="M2118 5884 l-1378 -796 0 -1588 0 -1588 1380 -796 1380 -796 1380
796 1380 796 0 1588 0 1588 -1380 796 c-758 438 -1381 796 -1382 795 -2 0
-623 -358 -1380 -795z m282 -2279 l0 -1225 -310 0 -310 0 0 1225 0 1225 310 0
310 0 0 -1225z m1772 390 c242 -456 444 -834 449 -839 5 -6 9 320 9 832 l0
842 295 0 295 0 0 -1225 0 -1225 -351 2 -351 3 -440 830 c-242 457 -444 834
-449 840 -5 5 -9 -328 -9 -833 l0 -842 -295 0 -295 0 0 1225 0 1225 351 -2
350 -3 441 -830z"/>
</g>
</svg>
