<svg id="Ebene_2" data-name="Ebene 2" xmlns="http://www.w3.org/2000/svg" viewBox="0 0 600 95"><defs><style>.cls-1{fill:#fff;}.cls-2{fill:#61b8e8;}</style></defs><title>InterNews-Logo-White</title><path class="cls-1" d="M63.17,36h-9V31h9V22h5v9h9v5h-9v9h-5Z"/><path class="cls-1" d="M91.13,36h-9V31h9V22h5v9h9v5h-9v9h-5Z"/><path class="cls-1" d="M118.08,36h-9V31h9V22h5v9h9v5h-9v9h-5Z"/><path class="cls-1" d="M151,50V16h7V50Z"/><path class="cls-1" d="M198,50H186.53L172.78,24h-.19q.41,6.88.41,9.83V50h-6V16h9.2l14.95,26h.16q-.34-6.76-.35-9.57V16h7Z"/><path class="cls-1" d="M218.92,50h-7V22h-9V16h26v6h-10Z"/><path class="cls-1" d="M252.87,50h-19V16h19v6h-12v7h12v6h-12v9h12Z"/><path class="cls-1" d="M267.84,37V50h-7V16h9.6q6.72,0,9.94,2.52c2.15,1.69,3.23,4.24,3.23,7.67A9.17,9.17,0,0,1,282,31.52a10.61,10.61,0,0,1-4.53,3.67q7.44,11.46,9.7,14.81h-7.45l-8.08-13Zm0-6h2.28a8.67,8.67,0,0,0,4.94-1.12,4,4,0,0,0,1.59-3.51A3.64,3.64,0,0,0,275,23a9.82,9.82,0,0,0-5-1h-2.14Z"/><path class="cls-1" d="M344,79H333.56L319.78,54h-.19c.27,4.42.41,7.56.41,9.45V79h-6V45h8.83l14.35,26h.16q-.34-6.77-.34-9.57V45h7Z"/><path class="cls-1" d="M372,79H353V45h19v6H360v8h12v6H360v9h12Z"/><path class="cls-1" d="M413,79h-8.21l-4.6-17.86c-.17-.64-.46-2-.87-3.94s-.65-3.33-.71-4c-.1.83-.33,2.18-.7,4s-.66,3.18-.86,4L392.45,79h-8.19l-8.67-34h7.09L387,63.56q1.14,5.13,1.65,8.91c.09-.89.31-2.26.64-4.11s.65-3.29.94-4.31l4.95-19H402l5,19c.22.85.49,2.15.82,3.9s.57,3.26.74,4.52c.15-1.21.4-2.72.74-4.53s.65-3.27.93-4.38L414.54,45h7.09Z"/><path class="cls-1" d="M446.34,70A8.88,8.88,0,0,1,443,77.3Q439.66,80,433.7,80a21.89,21.89,0,0,1-9.7-2.06V71.16a41.06,41.06,0,0,0,5.87,2.18,17.46,17.46,0,0,0,4.4.63,6.22,6.22,0,0,0,3.66-.92,3.09,3.09,0,0,0,1.28-2.71,3.05,3.05,0,0,0-.56-1.8A6.63,6.63,0,0,0,437,67a43.09,43.09,0,0,0-4.45-2.32,21.29,21.29,0,0,1-4.71-2.83,10.76,10.76,0,0,1-2.5-3.17,9,9,0,0,1-.94-4.22,8.88,8.88,0,0,1,3.08-7.15q3.09-2.6,8.52-2.6a19.8,19.8,0,0,1,5.1.64,34.31,34.31,0,0,1,5.07,1.78l-2.34,5.64a34.63,34.63,0,0,0-4.54-1.57,14.88,14.88,0,0,0-3.52-.44,4.69,4.69,0,0,0-3.17,1,3.19,3.19,0,0,0-1.1,2.51,3,3,0,0,0,.45,1.67,4.78,4.78,0,0,0,1.41,1.39,46.63,46.63,0,0,0,4.61,2.4c3.2,1.53,5.4,3.07,6.58,4.6A9,9,0,0,1,446.34,70Z"/><path class="cls-1" d="M472,65h-9V60h9V51h5v9h9v5h-9v9h-5Z"/><path class="cls-1" d="M499,65h-9V60h9V51h5v9h9v5h-9v9h-5Z"/><path class="cls-1" d="M527,65h-9V60h9V51h5v9h9v5h-9v9h-5Z"/><text></text><rect class="cls-2" x="54" y="69" width="233" height="10"/><rect class="cls-2" x="124" y="59" width="163" height="7" transform="translate(411 125) rotate(180)"/><rect class="cls-2" x="314" y="16" width="227" height="10" transform="translate(855 42) rotate(180)"/><rect class="cls-2" x="314" y="29" width="158.8" height="7"/></svg>