<svg id="Ebene_2" data-name="Ebene 2" xmlns="http://www.w3.org/2000/svg" viewBox="0 0 600 95"><defs><style>.cls-1{fill:#fff;}.cls-2{fill:#61b8e8;}</style></defs><title>Logo-Weiß</title><path class="cls-1" d="M137,15.17v39h-5v-39Z"/><path class="cls-1" d="M147,54.17v-39h3l25,31.41V15.17h5v39h-3L152,22.48V54.17Z"/><path class="cls-1" d="M216,15.17v4H204v35h-5v-35H186v-4Z"/><path class="cls-1" d="M247,15.17v4H227v14h19v4H227v13h21v4H222v-39Z"/><path class="cls-1" d="M255,54.17v-39h16.49q11,0,11,9.35,0,7.61-10.78,11.26L285,54.17h-6.92L266,36.54V33.23q10.89-1.78,10.88-8.64c0-3.61-2-5.42-6.05-5.42H260v35Z"/><path class="cls-1" d="M55,36.17v-8h4v8h9v4H59v8H55v-8H46v-4Z"/><path class="cls-1" d="M82,36.17v-8h4v8h9v4H86v8H82v-8H73v-4Z"/><path class="cls-1" d="M109,36.17v-8h4v8h9v4h-9v8h-4v-8h-9v-4Z"/><path class="cls-1" d="M305,74.17v-39h3l25,31.41V35.17h5v39h-3L310,42.48V74.17Z"/><path class="cls-1" d="M373,35.17v4H353v13h19v4H353v14h21v4H348v-39Z"/><path class="cls-1" d="M377.73,35.17h4.88l5.48,33.92,11-33.92h5L416,69.09l6.19-33.92h4.67l-7.34,39h-6.87l-11-32.68L390.93,74.17h-6.79Z"/><path class="cls-1" d="M432,72.53V67.91a41.48,41.48,0,0,0,13.45,2.17q10,0,10-7.35c0-4.17-2.47-6.26-7.4-6.56h-5c-8.15.3-12.23-3.24-12.23-10.31q0-11.16,15.66-11.16A44.86,44.86,0,0,1,459,36.33V41a34.52,34.52,0,0,0-12.49-2.18q-10.62,0-10.62,7.08c0,4.17,2.4,6.26,7.19,6.31h5c8.29-.05,12.43,3.49,12.43,10.56q0,11.45-15.07,11.44A54.1,54.1,0,0,1,432,72.53Z"/><path class="cls-1" d="M479,52.17v-8h4v8h9v4h-9v8h-4v-8h-9v-4Z"/><path class="cls-1" d="M506,52.17v-8h4v8h9v4h-9v8h-4v-8h-9v-4Z"/><path class="cls-1" d="M534,52.17v-8h4v8h9v4h-9v8h-4v-8h-9v-4Z"/><rect class="cls-2" x="46" y="68.17" width="240" height="5"/><rect class="cls-2" x="123" y="63.17" width="163" height="3"/><rect class="cls-2" x="304" y="14.17" width="243" height="5" transform="translate(851 33.33) rotate(180)"/><rect class="cls-2" x="304" y="22.17" width="163" height="3" transform="translate(771 47.33) rotate(180)"/></svg>