<svg id="Ebene_2" data-name="Ebene 2" xmlns="http://www.w3.org/2000/svg" viewBox="0 0 600 95"><defs><style>.cls-1{fill:#2d2d2d;}.cls-2{fill:#61b8e8;}</style></defs><title>Logo</title><g id="Logo"><path class="cls-1" d="M134,22.17v39h-5v-39Z"/><path class="cls-1" d="M144,61.17v-39h3l25,31.41V22.17h5v39h-3L149,29.48V61.17Z"/><path class="cls-1" d="M213,22.17v4H201v35h-5v-35H183v-4Z"/><path class="cls-1" d="M244,22.17v4H224v14h19v4H224v13h21v4H219v-39Z"/><path class="cls-1" d="M252,61.17v-39h16.49q11,0,11,9.35,0,7.61-10.78,11.26L282,61.17h-6.92L263,43.54V40.23q10.89-1.78,10.88-8.64c0-3.61-2-5.42-6.05-5.42H257v35Z"/><path class="cls-1" d="M52,43.17v-8h4v8h9v4H56v8H52v-8H43v-4Z"/><path class="cls-1" d="M79,43.17v-8h4v8h9v4H83v8H79v-8H70v-4Z"/><path class="cls-1" d="M106,43.17v-8h4v8h9v4h-9v8h-4v-8H97v-4Z"/><path class="cls-1" d="M302,81.17v-39h3l25,31.41V42.17h5v39h-3L307,49.48V81.17Z"/><path class="cls-1" d="M370,42.17v4H350v13h19v4H350v14h21v4H345v-39Z"/><path class="cls-1" d="M374.73,42.17h4.88l5.48,33.92,11-33.92h5L413,76.09l6.19-33.92h4.67l-7.34,39h-6.87l-11-32.68L387.93,81.17h-6.79Z"/><path class="cls-1" d="M429,79.53V74.91a41.48,41.48,0,0,0,13.45,2.17q10,0,10-7.35c0-4.17-2.47-6.26-7.4-6.56h-5c-8.15.3-12.23-3.24-12.23-10.31q0-11.16,15.66-11.16A44.86,44.86,0,0,1,456,43.33V48a34.52,34.52,0,0,0-12.49-2.18q-10.62,0-10.62,7.08c0,4.17,2.4,6.26,7.19,6.31h5c8.29-.05,12.43,3.49,12.43,10.56q0,11.44-15.07,11.44A54.1,54.1,0,0,1,429,79.53Z"/><path class="cls-1" d="M476,59.17v-8h4v8h9v4h-9v8h-4v-8h-9v-4Z"/><path class="cls-1" d="M503,59.17v-8h4v8h9v4h-9v8h-4v-8h-9v-4Z"/><path class="cls-1" d="M531,59.17v-8h4v8h9v4h-9v8h-4v-8h-9v-4Z"/><rect class="cls-2" x="43" y="75.17" width="240" height="5"/><rect class="cls-2" x="120" y="70.17" width="163" height="3"/><rect class="cls-2" x="301" y="21.17" width="243" height="5" transform="translate(845 47.33) rotate(180)"/><rect class="cls-2" x="301" y="29.17" width="163" height="3" transform="translate(765 61.33) rotate(180)"/></g></svg>